<svg xmlns="http://www.w3.org/2000/svg" width="462" height="341" viewBox="0 0 462 341"><g transform="translate(-19 -79)"><rect width="450" height="329" rx="10" transform="translate(25 85)" fill="rgba(255,255,255,0)"/><path d="M10-6H440a16.018,16.018,0,0,1,16,16V319a16.018,16.018,0,0,1-16,16H10A16.018,16.018,0,0,1-6,319V10A16.018,16.018,0,0,1,10-6ZM440,323a4,4,0,0,0,4-4V10a4,4,0,0,0-4-4H10a4,4,0,0,0-4,4V319a4,4,0,0,0,4,4Z" transform="translate(25 85)" fill="#fff"/><path d="M450,6H0V-6H450Z" transform="translate(25 144.5)" fill="#fff"/><circle cx="12.5" cy="12.5" r="12.5" transform="translate(54 102)" fill="#fff"/><circle cx="12.5" cy="12.5" r="12.5" transform="translate(91 102)" fill="#fff"/><circle cx="12.5" cy="12.5" r="12.5" transform="translate(128 102)" fill="#fff"/><path d="M78,6H0A6,6,0,0,1-6,0,6,6,0,0,1,0-6H78a6,6,0,0,1,6,6A6,6,0,0,1,78,6Z" transform="translate(362.5 114.5)" fill="#fff"/><text transform="translate(169 359)" fill="#fff" font-size="213" font-family="BaskOldFace, Baskerville Old Face"><tspan x="0" y="0">&lt;/&gt;</tspan></text></g></svg>