<svg xmlns="http://www.w3.org/2000/svg" width="404.561" height="385.001" viewBox="0 0 404.561 385.001"><g transform="translate(-44.72 -49)"><path d="M173.561,169.5H.075c-.05-1.65-.075-3.332-.075-5a165.729,165.729,0,0,1,3.342-33.153,163.632,163.632,0,0,1,24.752-58.82,164.978,164.978,0,0,1,72.376-59.6,163.722,163.722,0,0,1,30.878-9.585A165.71,165.71,0,0,1,164.5,0h50.122a165.724,165.724,0,0,1,33.152,3.342,163.437,163.437,0,0,1,51.615,20.153H173.561V169.5Z" transform="translate(50.72 258.5)" fill="#fff"/><path d="M173.561,175.5H.075a6,6,0,0,1-6-5.819C-5.974,167.971-6,166.228-6,164.5a171.744,171.744,0,0,1,3.463-34.356A169.634,169.634,0,0,1,23.122,69.168,170.978,170.978,0,0,1,98.132,7.4a169.73,169.73,0,0,1,32.012-9.937A171.719,171.719,0,0,1,164.5-6h50.122a171.733,171.733,0,0,1,34.355,3.463,169.439,169.439,0,0,1,53.507,20.891,6,6,0,0,1-3.1,11.14H179.561V169.5a6,6,0,0,1-6,6ZM6,163.5H167.561V23.494a6,6,0,0,1,6-6H274A157.7,157.7,0,0,0,246.572,9.22,159.71,159.71,0,0,0,214.622,6H164.5a159.7,159.7,0,0,0-31.949,3.22A157.6,157.6,0,0,0,75.885,33.065a158.969,158.969,0,0,0-57.432,69.741A157.687,157.687,0,0,0,9.22,132.55,159.666,159.666,0,0,0,6,163.5Z" transform="translate(50.72 258.5)" fill="#fff"/><ellipse cx="84.5" cy="91" rx="84.5" ry="91" transform="translate(156.28 67.5)" fill="#fff"/><path d="M84.5-18.5c56.794,0,103,49.122,103,109.5s-46.206,109.5-103,109.5S-18.5,151.378-18.5,91,27.706-18.5,84.5-18.5Zm0,182c36.393,0,66-32.523,66-72.5s-29.607-72.5-66-72.5-66,32.523-66,72.5S48.107,163.5,84.5,163.5Z" transform="translate(156.28 67.5)" fill="#fff"/><g transform="translate(-9.72 8.5)"><path d="M459,296.5v-7.553H249.65V296.5l103.967,53.02Z" fill="#fff"/><path d="M459,306.423V413.7l-71.813-71.731Z" fill="#fff"/><path d="M387.187,306.423V413.7L459,341.967Z" transform="translate(-137.187)" fill="#fff"/><path d="M249.65,424H458.128l-78.988-78.775L353.47,358.406l-26.017-13.181L249.65,424" fill="#fff"/></g></g></svg>